<?xml version="1.0" standalone="no"?>
<!DOCTYPE svg PUBLIC "-//W3C//DTD SVG 20010904//EN"
 "http://www.w3.org/TR/2001/REC-SVG-20010904/DTD/svg10.dtd">
<svg version="1.0" xmlns="http://www.w3.org/2000/svg"
 width="140.000000pt" height="140.000000pt" viewBox="0 0 140.000000 140.000000"
 preserveAspectRatio="xMidYMid meet">
<metadata>
Created by potrace 1.11, written by Peter Selinger 2001-2013
</metadata>
<g transform="translate(0.000000,140.000000) scale(0.100000,-0.100000)"
fill="#000000" stroke="none">
<path d="M508 1179 c-48 -10 -98 -24 -110 -30 -13 -7 -25 -12 -28 -11 -10 3
-140 -62 -140 -70 0 -4 -6 -8 -13 -8 -18 0 -108 -88 -145 -143 -111 -161 -88
-359 59 -506 95 -95 216 -156 375 -191 119 -26 316 -21 429 9 82 23 235 90
235 103 0 5 4 8 10 8 19 0 127 101 148 139 8 13 22 38 31 55 55 98 50 254 -11
354 -90 147 -251 250 -460 292 -114 24 -267 23 -380 -1z m-16 -280 c46 -12
119 -82 135 -126 6 -18 10 -56 9 -85 -8 -181 -223 -263 -352 -134 -80 79 -85
192 -12 280 54 66 133 90 220 65z m549 -1 c73 -24 139 -118 139 -198 0 -72
-49 -154 -112 -186 -65 -34 -169 -26 -218 16 -13 11 -26 20 -30 20 -15 0 -51
83 -57 128 -17 150 133 270 278 220z"/>
</g>
</svg>
